<svg xmlns="http://www.w3.org/2000/svg" viewBox="0 0 148.12 25"><defs><style>.cls-1,.cls-5{fill:#ed1c24;}.cls-1{fill-rule:evenodd;}.cls-2{fill:#003974;}.cls-3{fill:#1c3664;}.cls-4{fill:#ed2024;}.cls-6{fill:#fff;}.cls-7{fill:none;stroke:#e2e2e2;stroke-miterlimit:10;stroke-width:1.01px;}</style></defs><title>Asset 1</title><g id="Layer_2" data-name="Layer 2"><g id="Layer_1-2" data-name="Layer 1"><path class="cls-1" d="M4.74,14.38c-.36-.3-.66-.58-1-.83a.4.4,0,0,0-.37,0A10.76,10.76,0,0,0,.77,16.47a5.8,5.8,0,0,0,1.36,7.09,6.06,6.06,0,0,0,9.34-1.92A6,6,0,0,0,11,15.28a20.81,20.81,0,0,0-3.93-4C6,10.37,4.91,9.4,3.91,8.37A5.28,5.28,0,0,1,3,6.86,3.38,3.38,0,0,1,4.45,2.94,3.73,3.73,0,0,1,10,4.89a3.72,3.72,0,0,1-.76,3.77,22.9,22.9,0,0,1-1.61,1.66l-.24.23,1.15,1a8.73,8.73,0,0,0,3.13-3.81,5.69,5.69,0,0,0-2-6.49A6,6,0,0,0,.61,3.51a6,6,0,0,0,.71,6.37,19.52,19.52,0,0,0,3.57,3.58,23.52,23.52,0,0,1,3.5,3.26,3.59,3.59,0,0,1,.91,2.69A3.45,3.45,0,0,1,7.25,22.3a3.81,3.81,0,0,1-4.41-6c.48-.59,1.07-1.1,1.61-1.66Z"/><path class="cls-2" d="M17.79,4.31,15.21,6.38l-1.8-2.27L18.16.4h3V24.11h-3.4Z"/><path class="cls-2" d="M27.56,4.31,25,6.38l-1.8-2.27L27.94.4h3V24.11h-3.4Z"/><polygon class="cls-3" points="81.55 16.91 82.06 16.91 82.06 19.18 84.34 16.91 84.99 16.91 82.53 19.3 85.2 21.98 84.51 21.98 82.06 19.45 82.06 21.98 81.55 21.98 81.55 16.91"/><path class="cls-3" d="M87.32,21.68c.8,0,1.23-.69,1.23-1.55s-.43-1.55-1.23-1.55-1.23.69-1.23,1.55.43,1.55,1.23,1.55m0-3.49a1.73,1.73,0,0,1,1.73,1.94,1.74,1.74,0,1,1-3.46,0,1.73,1.73,0,0,1,1.73-1.94"/><path class="cls-3" d="M91.51,18.67h-.84v2.4c0,.33.12.61.49.61a1,1,0,0,0,.42-.09l0,.38a1.76,1.76,0,0,1-.56.1c-.81,0-.84-.56-.84-1.24V18.67h-.73v-.39h.73v-.9l.46-.16v1.06h.84Z"/><path class="cls-3" d="M94.42,20.11h-.14c-.79,0-1.73.08-1.73.9,0,.48.35.67.77.67,1.07,0,1.1-.94,1.1-1.34Zm0,1.28h0a1.29,1.29,0,0,1-1.17.68c-1,0-1.22-.71-1.22-1.05,0-1.24,1.32-1.3,2.28-1.3h.09v-.19c0-.63-.23-1-.85-1a2,2,0,0,0-1.09.31v-.45a3.15,3.15,0,0,1,1.09-.25c.92,0,1.3.41,1.3,1.38V21.2a4.78,4.78,0,0,0,0,.78h-.45Z"/><polygon class="cls-3" points="95.96 16.54 96.42 16.54 96.42 19.8 98.08 18.28 98.66 18.28 96.86 19.92 98.88 21.98 98.25 21.98 96.42 20.08 96.42 21.98 95.96 21.98 95.96 16.54"/><polygon class="cls-3" points="101.66 16.91 102.44 16.91 104.29 21.37 106.15 16.91 106.87 16.91 106.87 21.98 106.37 21.98 106.37 17.41 106.35 17.41 104.51 21.98 104.08 21.98 102.18 17.41 102.16 17.41 102.16 21.98 101.66 21.98 101.66 16.91"/><path class="cls-3" d="M110.15,20.11H110c-.79,0-1.73.08-1.73.9,0,.48.35.67.77.67,1.07,0,1.09-.94,1.09-1.34Zm0,1.28h0a1.3,1.3,0,0,1-1.17.68c-1.06,0-1.22-.71-1.22-1.05,0-1.24,1.32-1.3,2.28-1.3h.08v-.19c0-.63-.22-1-.84-1a2,2,0,0,0-1.09.31v-.45a3,3,0,0,1,1.09-.25c.92,0,1.3.41,1.3,1.38V21.2a4.78,4.78,0,0,0,0,.78h-.45Z"/><path class="cls-3" d="M111.7,16.54h.46V18.9h0a1.27,1.27,0,0,1,1.16-.71c1,0,1.26.66,1.26,1.58V22h-.46V19.77c0-.64-.12-1.19-.88-1.19s-1.09.77-1.09,1.42v2h-.46Z"/><path class="cls-3" d="M115.74,18.28h.45V22h-.45Zm.45-1h-.45v-.61h.45Z"/><path class="cls-3" d="M117.35,19.15a8.63,8.63,0,0,0,0-.87h.44v.66h0a1.17,1.17,0,0,1,1.2-.75c.91,0,1.26.61,1.26,1.42V22h-.46V19.73c0-.7-.24-1.15-.88-1.15-.83,0-1.09.74-1.09,1.35V22h-.46Z"/><path class="cls-3" d="M122.77,21.68c.81,0,1.09-.88,1.09-1.55s-.28-1.55-1.09-1.55-1.1.83-1.1,1.55.23,1.55,1.1,1.55m1.55.3h-.46v-.59h0a1.19,1.19,0,0,1-1.15.68c-1,0-1.53-.84-1.53-1.94s.44-1.94,1.53-1.94a1.26,1.26,0,0,1,1.15.71h0V16.54h.46Z"/><path class="cls-3" d="M125.43,19.11a6.47,6.47,0,0,0,0-.83h.45V19h0a1.11,1.11,0,0,1,.95-.8,1.47,1.47,0,0,1,.32,0v.48a1.19,1.19,0,0,0-.33,0c-.73,0-.93.81-.93,1.48V22h-.45Z"/><path class="cls-3" d="M129.93,20.11h-.13c-.79,0-1.74.08-1.74.9,0,.48.35.67.77.67,1.08,0,1.1-.94,1.1-1.34Zm0,1.28h0a1.32,1.32,0,0,1-1.18.68c-1,0-1.22-.71-1.22-1.05,0-1.24,1.32-1.3,2.28-1.3h.09v-.19c0-.63-.23-1-.84-1a1.94,1.94,0,0,0-1.09.31v-.45a3,3,0,0,1,1.09-.25c.91,0,1.3.41,1.3,1.38V21.2a6.36,6.36,0,0,0,0,.78H130Z"/><path class="cls-3" d="M134,19.13h.56c.53,0,1.23-.14,1.23-.95s-.67-.83-1.1-.83H134Zm0,2.41h.53c.67,0,1.43-.18,1.43-1s-.77-1-1.51-1H134Zm-.5-4.63h1.21c.82,0,1.6.28,1.6,1.25a1.05,1.05,0,0,1-.92,1.16h0a1.19,1.19,0,0,1,1.07,1.21c0,1.1-.9,1.44-2,1.44h-1Z"/><path class="cls-3" d="M139.62,20.11h-.14c-.79,0-1.73.08-1.73.9,0,.48.35.67.77.67,1.07,0,1.1-.94,1.1-1.34Zm0,1.28h0a1.29,1.29,0,0,1-1.17.68c-1.05,0-1.22-.71-1.22-1.05,0-1.24,1.32-1.3,2.28-1.3h.09v-.19c0-.63-.23-1-.85-1a2,2,0,0,0-1.09.31v-.45a3.15,3.15,0,0,1,1.09-.25c.92,0,1.3.41,1.3,1.38V21.2a4.78,4.78,0,0,0,0,.78h-.45Z"/><path class="cls-3" d="M141.16,19.15a8.63,8.63,0,0,0,0-.87h.45v.66h0a1.17,1.17,0,0,1,1.2-.75c.91,0,1.26.61,1.26,1.42V22h-.45V19.73c0-.7-.25-1.15-.88-1.15-.84,0-1.1.74-1.1,1.35V22h-.46Z"/><polygon class="cls-3" points="145.2 16.54 145.66 16.54 145.66 19.8 147.31 18.28 147.9 18.28 146.09 19.92 148.12 21.98 147.49 21.98 145.66 20.08 145.66 21.98 145.2 21.98 145.2 16.54"/><path class="cls-4" d="M94,12.64c-1.32,0-1.86-1.1-1.86-2.32S92.68,8,94,8s1.86,1.1,1.86,2.34-.54,2.32-1.86,2.32m0,2c2.74,0,4.82-1.59,4.82-4.33S96.74,6,94,6s-4.82,1.59-4.82,4.34,2.08,4.33,4.82,4.33"/><path class="cls-4" d="M98.56,8.17h1.63v3.37c0,2,.63,3.11,3.19,3.11a14.32,14.32,0,0,0,1.79-.16l-.09-1.86a6.61,6.61,0,0,1-.88.11c-.9,0-1.14-.51-1.14-1.51V8.17h2v-2h-2V3.3l-2.82,1V6.17H98.56Z"/><polygon class="cls-4" points="115.08 14.46 117.95 14.46 117.95 10.35 117.98 10.35 120.27 14.46 123.74 14.46 120.62 9.97 123.5 6.17 120.36 6.17 117.98 9.65 117.95 9.65 117.95 3.31 115.08 4.3 115.08 14.46"/><polygon class="cls-4" points="81.55 14.46 84.42 14.46 84.42 10.35 84.45 10.35 86.74 14.46 90.21 14.46 87.09 9.97 89.97 6.17 86.84 6.17 84.45 9.65 84.42 9.65 84.42 3.31 81.55 4.26 81.55 14.46"/><path class="cls-4" d="M108.22,11.84c0-.81.78-1.11,1.76-1.11.43,0,.85,0,1.22,0a1.89,1.89,0,0,1-1.79,2c-.67,0-1.19-.34-1.19-.92m5.85,2.66a10.28,10.28,0,0,1-.16-2V9.39c0-2.56-1.86-3.48-4-3.48a8.65,8.65,0,0,0-3.35.6l0,2a5.48,5.48,0,0,1,2.68-.62c1,0,1.89.3,1.91,1.44a9,9,0,0,0-1.35-.11c-1.55,0-4.33.31-4.33,2.87,0,1.82,1.48,2.64,3.14,2.64a2.88,2.88,0,0,0,2.65-1.51h0c0,.43,0,.86.06,1.32Z"/><path class="cls-2" d="M51,12.5C51,5.84,57.28.44,65,.44S79,5.84,79,12.5,72.77,24.56,65,24.56,51,19.16,51,12.5"/><polygon class="cls-5" points="63.32 4.34 66.58 3.27 66.59 20.88 63.31 21.98 63.32 4.34"/><path class="cls-6" d="M65.25,15.32c-1.41,1.71-2.78,3.45-5.34,3.45-3.62,0-5.34-3.5-5.34-6.42s1.34-6.14,4.87-6.14a5.53,5.53,0,0,1,3.88,1.92v2.39a8,8,0,0,0-3.45-1c-2.24,0-4.21.94-4.18,3.14a2.88,2.88,0,0,0,3,2.56c2.3,0,3.69-2.1,4.85-3.69.32-.42,1.24-1.64,1.38-1.84,1.29-1.8,2.78-3.44,5.34-3.44,3,0,4.72,2.43,5.2,4.93H74.13a3.26,3.26,0,0,0-2.65-1.3c-2.37,0-3.79,2.18-5,3.78,0,0-.92,1.26-1.26,1.66m10.32-1.58c-.31,2.52-1.72,5.07-4.81,5.07a5.15,5.15,0,0,1-4.18-2.74V14.33a8.77,8.77,0,0,0,3.74,1.27,4.13,4.13,0,0,0,3.88-1.86Z"/><line class="cls-7" x1="41.23" y1="0.5" x2="41.23" y2="24.5"/></g></g></svg>