<svg xmlns="http://www.w3.org/2000/svg" width="51.825" height="36.119" viewBox="0 0 51.825 36.119"><defs><style>.a{fill-rule:evenodd;}</style></defs><g transform="translate(-539.577 -17.323)"><g transform="translate(539.577 47.317)"><path class="a" d="M2.645.76H35.623a2.853,2.853,0,0,1,2.645,3.063h0a2.853,2.853,0,0,1-2.645,3.063H2.645A2.853,2.853,0,0,1,0,3.823H0A2.853,2.853,0,0,1,2.645.76Z" transform="translate(0 -0.76)"/></g><g transform="translate(539.744 33.323)"><path class="a" d="M2.5,3.68H49.172c1.394,0,2.495,1.374,2.495,3.114h0c0,1.74-1.1,3.114-2.495,3.114H2.5C1.111,9.909.01,8.535.01,6.794h0c0-1.74,1.1-3.114,2.495-3.114Z" transform="translate(-0.01 -3.68)"/></g><g transform="translate(539.744 17.323)"><path class="a" d="M1.84,6.229H36.26c1.028,0,1.84-1.374,1.84-3.114h0C38.1,1.375,37.288,0,36.26,0H1.84C.812,0,0,1.374,0,3.115H0c0,1.74.812,3.114,1.84,3.114Z" transform="translate(0 0)"/></g></g></svg>