<svg xmlns="http://www.w3.org/2000/svg" width="29.909" height="32.959" viewBox="0 0 29.909 32.959"><defs><style>.a{fill:#aaa;}</style></defs><g transform="translate(19.937 -267.46)"><g transform="translate(-19.937 267.46)"><g transform="translate(0 0)"><path class="a" d="M88.518,58.4l5.2-5.815c.247-.28.494-.551.74-.831H92.713l5.2,5.815c.247.28.494.551.74.831a1.233,1.233,0,0,0,1.744-1.744l-5.2-5.815c-.247-.28-.493-.551-.74-.831a1.241,1.241,0,0,0-1.744,0l-5.2,5.815c-.247.28-.494.551-.74.831a1.257,1.257,0,0,0,0,1.744,1.241,1.241,0,0,0,1.744,0Z" transform="translate(-86.422 -49.65)"/><g transform="translate(5.929 0.307)"><path class="a" d="M158.5,54.62V80.447a1.234,1.234,0,1,0,2.468,0V54.62a1.234,1.234,0,0,0-2.468,0Z" transform="translate(-158.5 -53.385)"/></g></g><g transform="translate(15.585 4.354)"><g transform="translate(0 19.499)"><path class="a" d="M239.774,341.749l5.2,5.815c.247.28.494.551.74.831a1.241,1.241,0,0,0,1.744,0l5.2-5.815c.247-.28.494-.551.74-.831a1.257,1.257,0,0,0,0-1.744,1.241,1.241,0,0,0-1.744,0l-5.2,5.815c-.247.28-.494.551-.74.831h1.744l-5.2-5.815c-.247-.28-.494-.551-.74-.831a1.233,1.233,0,1,0-1.744,1.744Z" transform="translate(-239.422 -339.647)"/></g><g transform="translate(5.929)"><path class="a" d="M313.968,129.647V103.82a1.234,1.234,0,1,0-2.468,0v25.827a1.234,1.234,0,1,0,2.468,0Z" transform="translate(-311.5 -102.585)"/></g></g></g></g></svg>