<svg xmlns="http://www.w3.org/2000/svg" width="55.426" height="42.945" viewBox="0 0 55.426 42.945"><g transform="translate(-540.916 -13.827)"><path d="M-16257.384,11.877l-25.6-17.74a4.364,4.364,0,0,1-1.643-1.212c-1-1.426-.135-3.576.769-4.312l27.146-19.034c.846-.593,2.3.069,3.294,1.5s1.124,3.016.282,3.6l-17.92,14.178h38.9c1.4,0,2.51,1.373,2.51,3.114s-1.107,3.114-2.51,3.114h-38.524l16.81,11.771a2.847,2.847,0,0,1,.408,4.026,3.164,3.164,0,0,1-2.536,1.424A2.389,2.389,0,0,1-16257.384,11.877Z" transform="translate(16825.99 44.465)"/></g></svg>