<svg xmlns="http://www.w3.org/2000/svg" width="17.046" height="22.157" viewBox="0 0 17.046 22.157"><defs><style>.a{fill:#aaa;}</style></defs><g transform="translate(-13.679 -64.2)"><g transform="translate(13.679 64.2)"><g transform="translate(0 0)"><path class="a" d="M183.949,84.476a1.394,1.394,0,0,1-.754,1.232,1.461,1.461,0,0,1-.678.151H169.307a1.419,1.419,0,0,1-.861-.277,1.4,1.4,0,0,1-.549-1.108v-18.3c0-.057,0-.114,0-.171a1.394,1.394,0,0,1,.811-1.192,2.188,2.188,0,0,1,.945-.121h12.892a1.4,1.4,0,0,1,1.4,1.387c0,.168,0,.336,0,.5v17.5c0,.129,0,.262,0,.393a.247.247,0,0,0,.495,0V66.458a4.7,4.7,0,0,0-.017-.618,1.9,1.9,0,0,0-1.9-1.64H169.294a1.883,1.883,0,0,0-1.894,1.877V84.4a1.913,1.913,0,0,0,1.029,1.753,2.565,2.565,0,0,0,1.192.2h12.194c.245,0,.492,0,.737,0a1.9,1.9,0,0,0,1.889-1.877A.246.246,0,0,0,183.949,84.476Z" transform="translate(-167.4 -64.2)"/></g><g transform="translate(2.307 2.495)"><path class="a" d="M272.882,169.209H261.434c-.153,0-.312-.012-.465,0h-.02l.247.247v-4.113l-.247.247H272.4c.153,0,.312.012.465,0h.02l-.247-.247v4.113a.247.247,0,0,0,.495,0v-4.113a.251.251,0,0,0-.247-.247H262.421c-.482,0-.969-.017-1.454,0h-.02a.251.251,0,0,0-.247.247v4.113a.251.251,0,0,0,.247.247h10.461c.482,0,.969.017,1.454,0h.02A.247.247,0,0,0,272.882,169.209Z" transform="translate(-260.7 -165.089)"/></g><g transform="translate(2.307 8.702)"><path class="a" d="M263.749,418.407h-2.8l.247.247v-2.307l-.247.247h2.8l-.247-.247v2.307a.247.247,0,0,0,.495,0v-2.307a.251.251,0,0,0-.247-.247h-2.8a.251.251,0,0,0-.247.247v2.307a.251.251,0,0,0,.247.247h2.8A.247.247,0,0,0,263.749,418.407Z" transform="translate(-260.7 -416.1)"/></g><g transform="translate(6.872 8.702)"><path class="a" d="M448.349,418.407h-2.8l.247.247v-2.307l-.247.247h2.8l-.247-.247v2.307a.247.247,0,0,0,.495,0v-2.307a.251.251,0,0,0-.247-.247h-2.8a.251.251,0,0,0-.247.247v2.307a.251.251,0,0,0,.247.247h2.8A.247.247,0,0,0,448.349,418.407Z" transform="translate(-445.3 -416.1)"/></g><g transform="translate(11.44 8.702)"><g transform="translate(0)"><path class="a" d="M633.049,418.407h-2.8l.247.247v-2.307l-.247.247h2.8l-.247-.247v2.307a.247.247,0,0,0,.495,0v-2.307a.251.251,0,0,0-.247-.247h-2.8a.251.251,0,0,0-.247.247v2.307a.251.251,0,0,0,.247.247h2.8A.247.247,0,0,0,633.049,418.407Z" transform="translate(-630 -416.1)"/></g></g><g transform="translate(2.307 12.877)"><path class="a" d="M263.749,587.207h-2.8l.247.247v-2.307l-.247.247h2.8l-.247-.247v2.307a.247.247,0,0,0,.495,0v-2.307a.251.251,0,0,0-.247-.247h-2.8a.251.251,0,0,0-.247.247v2.307a.251.251,0,0,0,.247.247h2.8A.247.247,0,0,0,263.749,587.207Z" transform="translate(-260.7 -584.9)"/></g><g transform="translate(6.872 12.877)"><path class="a" d="M448.349,587.207h-2.8l.247.247v-2.307l-.247.247h2.8l-.247-.247v2.307a.247.247,0,0,0,.495,0v-2.307a.251.251,0,0,0-.247-.247h-2.8a.251.251,0,0,0-.247.247v2.307a.251.251,0,0,0,.247.247h2.8A.247.247,0,0,0,448.349,587.207Z" transform="translate(-445.3 -584.9)"/></g><g transform="translate(2.307 17.054)"><path class="a" d="M263.749,756.107h-2.8l.247.247v-2.307l-.247.247h2.8l-.247-.247v2.307a.247.247,0,0,0,.495,0v-2.307a.251.251,0,0,0-.247-.247h-2.8a.251.251,0,0,0-.247.247v2.307a.251.251,0,0,0,.247.247h2.8A.247.247,0,0,0,263.749,756.107Z" transform="translate(-260.7 -753.8)"/></g><g transform="translate(6.872 17.054)"><path class="a" d="M448.349,756.107h-2.8l.247.247v-2.307l-.247.247h2.8l-.247-.247v2.307a.247.247,0,0,0,.495,0v-2.307a.251.251,0,0,0-.247-.247h-2.8a.251.251,0,0,0-.247.247v2.307a.251.251,0,0,0,.247.247h2.8A.247.247,0,0,0,448.349,756.107Z" transform="translate(-445.3 -753.8)"/></g><g transform="translate(11.44 12.879)"><g transform="translate(0)"><path class="a" d="M632.8,585.247v6.482l.247-.247h-2.8l.247.247v-6.482l-.247.247h2.8a.247.247,0,0,0,0-.495h-2.8a.251.251,0,0,0-.247.247v6.482a.251.251,0,0,0,.247.247h2.8a.251.251,0,0,0,.247-.247v-6.482A.247.247,0,0,0,632.8,585.247Z" transform="translate(-630 -585)"/></g></g></g></g></svg>