<svg xmlns="http://www.w3.org/2000/svg" width="46" height="46" viewBox="0 0 46 46"><defs><style>.a{fill:#c2172e;}.b{fill:#fff;fill-rule:evenodd;}</style></defs><g transform="translate(-3283 -10083)"><circle class="a" cx="23" cy="23" r="23" transform="translate(3283 10083)"/><path class="b" d="M43.3,43.683H33.763a.763.763,0,0,0-.763.763V47.5h0a.763.763,0,0,0,.763.763H43.3a.382.382,0,0,1,.382.382v9.538h0a.763.763,0,0,0,.763.763H47.5a.763.763,0,0,0,.763-.763V48.643h0a.382.382,0,0,1,.382-.382h9.538a.763.763,0,0,0,.763-.763V44.446h0a.763.763,0,0,0-.763-.763H48.643a.382.382,0,0,1-.382-.382V33.763h0A.763.763,0,0,0,47.5,33H44.446a.763.763,0,0,0-.763.763V43.3h0A.382.382,0,0,1,43.3,43.683Z" transform="translate(3306 10041.026) rotate(45)"/></g></svg>