<svg xmlns="http://www.w3.org/2000/svg" width="46" height="46" viewBox="0 0 46 46"><defs><style>.a{fill:#009737;}.b{fill:#fff;}</style></defs><g transform="translate(-0.322)"><circle class="a" cx="23" cy="23" r="23" transform="translate(0.322)"/><g transform="translate(8.081 12.798)"><g transform="translate(0)"><path class="b" d="M10.578,12.955,3.8,7.126a.66.66,0,0,0-.835,0L-.077,9.772a.467.467,0,0,0,0,.726q5.13,4.41,10.255,8.816a.661.661,0,0,0,.839,0L29.491,3.252a.47.47,0,0,0,0-.726L26.429-.1a.661.661,0,0,0-.839,0Z" transform="translate(0.25 0.25)"/></g></g></g></svg>