<svg xmlns="http://www.w3.org/2000/svg" width="45.056" height="34.145" viewBox="0 0 45.056 34.145"><defs><style>.a{fill:#333;}</style></defs><g transform="translate(0 0)"><path class="a" d="M53.723,22.615A3.282,3.282,0,0,1,50.442,25.9H11.949a3.282,3.282,0,0,1-3.282-3.282h0a3.282,3.282,0,0,1,3.282-3.282H50.442a3.281,3.281,0,0,1,3.281,3.282Z" transform="translate(-8.667 -19.333)"/><path class="a" d="M52.823,47.918A3.282,3.282,0,0,1,49.541,51.2H21.949a3.282,3.282,0,0,1-3.282-3.282h0a3.282,3.282,0,0,1,3.282-3.282H49.541a3.281,3.281,0,0,1,3.281,3.282Z" transform="translate(-13.217 -30.845)"/><path class="a" d="M51.471,73.22A3.282,3.282,0,0,1,48.19,76.5H36.949a3.282,3.282,0,0,1-3.282-3.282h0a3.282,3.282,0,0,1,3.282-3.282H48.19a3.281,3.281,0,0,1,3.281,3.282Z" transform="translate(-20.041 -42.356)"/></g></svg>