<svg xmlns="http://www.w3.org/2000/svg" width="33.179" height="25.144" viewBox="0 0 33.179 25.144"><defs><style>.a{fill:#aaa;}</style></defs><g transform="translate(-8.667 -19.333)"><g transform="translate(8.667 19.333)"><path class="a" d="M41.846,21.75a2.417,2.417,0,0,1-2.417,2.417H11.084A2.417,2.417,0,0,1,8.667,21.75h0a2.417,2.417,0,0,1,2.417-2.417H39.43a2.416,2.416,0,0,1,2.416,2.417Z" transform="translate(-8.667 -19.333)"/><path class="a" d="M43.819,47.053A2.417,2.417,0,0,1,41.4,49.469H21.084a2.417,2.417,0,0,1-2.417-2.417h0a2.417,2.417,0,0,1,2.417-2.417H41.4a2.416,2.416,0,0,1,2.416,2.417Z" transform="translate(-14.653 -34.48)"/><path class="a" d="M46.778,72.355a2.417,2.417,0,0,1-2.417,2.417H36.084a2.417,2.417,0,0,1-2.417-2.417h0a2.417,2.417,0,0,1,2.417-2.417h8.278a2.416,2.416,0,0,1,2.416,2.417Z" transform="translate(-23.633 -49.627)"/></g></g></svg>