<svg xmlns="http://www.w3.org/2000/svg" width="24" height="24" viewBox="0 0 24 24"><defs><style>.a{fill:#fff;stroke:#aaa;}.b{fill:#aaa;}.c{stroke:none;}.d{fill:none;}</style></defs><g transform="translate(-251 -7.102)"><g class="a" transform="translate(251 7.102)"><circle class="c" cx="12" cy="12" r="12"/><circle class="d" cx="12" cy="12" r="11.5"/></g><g transform="translate(249.699 5.801)"><path class="b" d="M19.4,14.823l-4.495.564-.161.746.883.163c.577.138.691.345.565.92L14.74,24.023c-.38,1.76.206,2.589,1.586,2.589A4.065,4.065,0,0,0,19.2,25.439l.173-.817a2.174,2.174,0,0,1-1.347.482c-.54,0-.736-.379-.6-1.046Z" transform="translate(-4.167 -5.058)"/><path class="b" d="M19.676,9.838a1.963,1.963,0,1,1-1.963-1.963A1.963,1.963,0,0,1,19.676,9.838Z" transform="translate(-4.411 -2.206)"/></g></g></svg>