<svg xmlns="http://www.w3.org/2000/svg" width="18.802" height="26.583" viewBox="0 0 18.802 26.583"><defs><style>.a{fill:#555;}</style></defs><g transform="translate(-7.561 10.002)"><g transform="translate(7.561 -10.002)"><path class="a" d="M30.4,961.361a9.581,9.581,0,0,0-9.4,9.725A8.986,8.986,0,0,0,22.479,976l7.091,11.478a.973.973,0,0,0,1.661,0L38.323,976a8.986,8.986,0,0,0,1.479-4.913A9.581,9.581,0,0,0,30.4,961.361Zm0,1.945a7.609,7.609,0,0,1,7.456,7.78,6.761,6.761,0,0,1-1.2,3.89L30.4,985.107l-6.261-10.13a6.76,6.76,0,0,1-1.2-3.89A7.609,7.609,0,0,1,30.4,963.306Zm0,2.593a4.863,4.863,0,1,0,4.863,4.863A4.878,4.878,0,0,0,30.4,965.9Zm0,1.945a2.918,2.918,0,1,1-2.918,2.918A2.9,2.9,0,0,1,30.4,967.845Z" transform="translate(-21 -961.361)"/></g></g></svg>