<svg xmlns="http://www.w3.org/2000/svg" width="72.373" height="90.9" viewBox="0 0 72.373 90.9"><defs><style>.a{fill:#00501d;}.b{fill:#00270e;}.c{fill:#c2172e;}.d{fill:#1a5d7b;}.e{fill:#f94059;}.f{fill:#fff;}.g{fill:#67cfff;}</style></defs><g transform="translate(-52.179)"><path class="a" d="M111.949,280.624,93.363,312.672l5.562-1.9a3.276,3.276,0,0,1,4.19,2.142l1.977,6.468a3.274,3.274,0,0,0,6.048.534l16.1-31.477Z" transform="translate(-33.872 -230.803)"/><path class="b" d="M80.649,259.6l-16.1,31.477a3.276,3.276,0,0,0,3.974,4.59l.838-.287,18.583-32.048Z" transform="translate(-9.872 -213.511)"/><path class="a" d="M243.118,280.624,261.7,312.672l-5.562-1.9a3.276,3.276,0,0,0-4.19,2.142l-1.977,6.468a3.274,3.274,0,0,1-6.048.534l-16.1-31.477Z" transform="translate(-144.464 -230.803)"/><path class="b" d="M321.268,259.6l16.1,31.477a3.275,3.275,0,0,1-3.974,4.59l-.838-.287-18.583-32.048Z" transform="translate(-215.314 -213.511)"/><circle class="c" cx="36.186" cy="36.186" r="36.186" transform="translate(52.179 0)"/><circle class="d" cx="24.191" cy="24.191" r="24.191" transform="translate(64.175 11.996)"/><path class="e" d="M88.486,80.634a32.915,32.915,0,1,1,38.26-52.614,2.858,2.858,0,1,1-4.031,4.054A27.2,27.2,0,1,0,91.108,75.55a2.86,2.86,0,1,1-2.622,5.085Z" transform="translate(-15.173 -15.173)"/><path class="f" d="M183.193,161.655a3.553,3.553,0,0,1-2.525-1.048l-6.07-6.07a3.573,3.573,0,0,1,5.053-5.053l3.542,3.542,13.535-13.535a3.573,3.573,0,1,1,5.053,5.053L185.721,160.6A3.555,3.555,0,0,1,183.193,161.655Z" transform="translate(-99.824 -113.865)"/><g transform="translate(71.529 21.12)"><circle class="g" cx="4.872" cy="4.872" r="4.872" transform="translate(0)"/><circle class="g" cx="3.221" cy="3.221" r="3.221" transform="translate(31 16.475)"/></g></g></svg>