<svg xmlns="http://www.w3.org/2000/svg" width="50.495" height="55.643" viewBox="0 0 50.495 55.643"><defs><style>.a{fill:#333;}</style></defs><g transform="translate(0 0)"><path class="a" d="M89.96,64.418,98.736,54.6c.417-.472.833-.93,1.25-1.4H97.042l8.776,9.818c.417.472.833.93,1.25,1.4a2.082,2.082,0,0,0,2.944-2.944l-8.776-9.818c-.417-.472-.833-.93-1.25-1.4a2.1,2.1,0,0,0-2.944,0l-8.776,9.818c-.417.472-.833.93-1.25,1.4a2.122,2.122,0,0,0,0,2.944,2.1,2.1,0,0,0,2.944,0Z" transform="translate(-86.422 -49.65)"/><g transform="translate(10.009 0.519)"><path class="a" d="M158.5,55.47v43.6a2.083,2.083,0,0,0,4.166,0V55.47a2.083,2.083,0,0,0-4.166,0Z" transform="translate(-158.5 -53.385)"/></g><g transform="translate(26.311 7.351)"><g transform="translate(0 32.92)"><path class="a" d="M240.016,343.2l8.776,9.818c.417.472.833.93,1.25,1.4a2.1,2.1,0,0,0,2.944,0l8.776-9.818c.417-.472.833-.93,1.25-1.4a2.122,2.122,0,0,0,0-2.944,2.1,2.1,0,0,0-2.944,0l-8.776,9.818c-.417.472-.833.93-1.25,1.4h2.944l-8.776-9.818c-.417-.472-.833-.93-1.25-1.4a2.082,2.082,0,0,0-2.944,2.944Z" transform="translate(-239.422 -339.647)"/></g><g transform="translate(10.009)"><path class="a" d="M315.666,148.273v-43.6a2.083,2.083,0,1,0-4.166,0v43.6a2.083,2.083,0,1,0,4.166,0Z" transform="translate(-311.5 -102.585)"/></g></g></g></svg>