<svg xmlns="http://www.w3.org/2000/svg" xmlns:xlink="http://www.w3.org/1999/xlink" width="319.217" height="54" viewBox="0 0 319.217 54"><defs><style>.a{fill:url(#a);}.b{fill:#aaa;}.c{clip-path:url(#f);}</style><linearGradient id="a" x1="0.5" x2="0.5" y2="1" gradientUnits="objectBoundingBox"><stop offset="0" stop-color="#ffae5d"/><stop offset="1" stop-color="#d96d00"/></linearGradient><clipPath id="f"><rect class="a" width="32" height="54" transform="translate(0.467 -0.3)"/></clipPath></defs><g transform="translate(0 0.3)"><path class="a" d="M32.842,49.027,15.328,58.2l3.343-19.427L4.5,25.011l19.583-2.834L32.842,4.5,41.6,22.175l19.583,2.834L47.012,38.773,50.356,58.2Z" transform="translate(-4.5 -4.5)"/><path class="a" d="M32.842,49.027,15.328,58.2l3.343-19.427L4.5,25.011l19.583-2.834L32.842,4.5,41.6,22.175l19.583,2.834L47.012,38.773,50.356,58.2Z" transform="translate(61.133 -4.5)"/><path class="a" d="M32.842,49.027,15.328,58.2l3.343-19.427L4.5,25.011l19.583-2.834L32.842,4.5,41.6,22.175l19.583,2.834L47.012,38.773,50.356,58.2Z" transform="translate(126.767 -4.5)"/><path class="a" d="M32.842,49.027,15.328,58.2l3.343-19.427L4.5,25.011l19.583-2.834L32.842,4.5,41.6,22.175l19.583,2.834L47.012,38.773,50.356,58.2Z" transform="translate(192.4 -4.5)"/><path class="b" d="M32.842,49.027,15.328,58.2l3.343-19.427L4.5,25.011l19.583-2.834L32.842,4.5,41.6,22.175l19.583,2.834L47.012,38.773,50.356,58.2Z" transform="translate(258.033 -4.5)"/><g class="c" transform="translate(258.556)"><path class="a" d="M32.842,49.027,15.328,58.2l3.343-19.427L4.5,25.011l19.583-2.834L32.842,4.5,41.6,22.175l19.583,2.834L47.012,38.773,50.356,58.2Z" transform="translate(-0.522 -4.5)"/></g></g></svg>